<svg width="13" height="23" viewBox="0 0 13 23" fill="none" xmlns="http://www.w3.org/2000/svg">
<path d="M1.50012 12.5459C2.32855 12.5459 3.00012 11.8743 3.00012 11.0459C3.00012 10.2175 2.32855 9.5459 1.50012 9.5459L1.50012 11.0459L1.50012 12.5459ZM0.439362 9.98524C-0.146424 10.571 -0.146425 11.5208 0.439362 12.1066L9.9853 21.6525C10.5711 22.2383 11.5208 22.2383 12.1066 21.6525C12.6924 21.0667 12.6924 20.117 12.1066 19.5312L3.62134 11.0459L12.1066 2.56062C12.6924 1.97483 12.6924 1.02509 12.1066 0.439299C11.5208 -0.146488 10.5711 -0.146489 9.98531 0.439298L0.439362 9.98524ZM1.50012 11.0459L1.50012 9.5459L1.50002 9.5459L1.50002 11.0459L1.50002 12.5459L1.50012 12.5459L1.50012 11.0459Z" fill="white"/>
</svg>
