<svg width="13" height="23" viewBox="0 0 13 23" fill="none" xmlns="http://www.w3.org/2000/svg">
<path d="M11.0458 9.5459C10.2174 9.5459 9.54584 10.2175 9.54584 11.0459C9.54584 11.8743 10.2174 12.5459 11.0458 12.5459L11.0458 11.0459L11.0458 9.5459ZM12.1066 12.1066C12.6924 11.5208 12.6924 10.571 12.1066 9.98524L2.56066 0.439295C1.97487 -0.146492 1.02512 -0.146492 0.439338 0.439295C-0.146449 1.02508 -0.146449 1.97483 0.439337 2.56062L8.92462 11.0459L0.439334 19.5312C-0.146453 20.117 -0.146453 21.0667 0.439334 21.6525C1.02512 22.2383 1.97487 22.2383 2.56065 21.6525L12.1066 12.1066ZM11.0458 11.0459L11.0458 12.5459L11.0459 12.5459L11.0459 11.0459L11.0459 9.5459L11.0458 9.5459L11.0458 11.0459Z" fill="white"/>
</svg>
