<svg width="15" height="16" viewBox="0 0 15 16" fill="none" xmlns="http://www.w3.org/2000/svg">
<path d="M11.9323 15.9884C11.7664 16.0048 11.4824 16.0029 11.3154 15.9884C10.9339 15.9551 10.5134 15.8326 10.1474 15.7156C6.36012 14.5061 1.40485 9.23221 0.263709 5.20692C-0.00814989 4.24756 -0.218574 2.88975 0.418952 2.04508C0.673153 1.70847 1.86396 0.425807 2.17113 0.223055C2.7693 -0.171489 3.48996 -0.00983572 4.00204 0.451249C4.78451 1.15579 5.54123 2.13746 6.2641 2.91793C6.57606 3.453 6.54589 4.17241 6.17471 4.66677C5.82559 5.13138 5.269 5.11298 4.89745 5.58855C4.20621 6.47236 4.8614 7.70766 5.3996 8.49048C6.19016 9.64045 8.58943 12.0465 9.90274 10.5665C10.2066 10.2244 10.204 9.77471 10.566 9.42909C11.1439 8.87759 11.9227 8.96605 12.4911 9.47645C13.0996 10.0229 14.0472 11.0499 14.5769 11.6934C15.0625 12.2833 15.1501 13.0309 14.7351 13.7057C14.5236 14.0497 13.3747 15.2568 13.0462 15.5328C12.7608 15.7727 12.2939 15.9528 11.9327 15.9884H11.9323Z" fill="white"/>
</svg>
