<svg width="282" height="282" viewBox="0 0 282 282" fill="none" xmlns="http://www.w3.org/2000/svg">
<g clip-path="url(#clip0_247_488)">
<g filter="url(#filter0_d_247_488)">
<circle cx="141.163" cy="141.163" r="140.83" transform="rotate(45 141.163 141.163)" fill="white" fill-opacity="0.1" shape-rendering="crispEdges"/>
</g>
<g clip-path="url(#clip1_247_488)">
<path d="M167.896 144.189V168.059H144.027V164.081H161.105L113.778 116.754L116.591 113.941L163.918 161.268V144.189H167.896Z" fill="white"/>
</g>
<path d="M30.1623 163.578C30.7474 163.122 31.1463 162.564 31.359 161.906C31.5842 161.246 31.6239 160.524 31.478 159.739C31.3184 158.88 30.983 158.15 30.472 157.549C29.9609 156.948 29.3146 156.521 28.533 156.267C27.7538 156.025 26.8971 155.991 25.9631 156.165C25.0291 156.338 24.2357 156.679 23.5828 157.187C22.9447 157.705 22.4951 158.336 22.234 159.08C21.9729 159.824 21.9222 160.626 22.0819 161.485C22.2972 162.644 22.7957 163.524 23.5775 164.126C24.3593 164.727 25.3194 165.006 26.4579 164.962L25.5518 160.087L27.2517 159.771L28.5813 166.925L26.9187 167.234C25.8846 167.285 24.8897 167.096 23.9341 166.668C22.9808 166.253 22.162 165.625 21.4779 164.786C20.8085 163.957 20.3685 162.976 20.1579 161.843C19.9311 160.622 20.0041 159.456 20.3771 158.343C20.7625 157.228 21.404 156.278 22.3016 155.492C23.2016 154.72 24.2867 154.215 25.5569 153.979C26.8272 153.743 28.0211 153.824 29.1386 154.222C30.2584 154.632 31.1922 155.289 31.9401 156.194C32.7027 157.109 33.1963 158.17 33.4208 159.378C33.6777 160.76 33.5632 162.051 33.0773 163.249C32.6061 164.457 31.793 165.42 30.6379 166.137L30.1623 163.578ZM33.5964 169.19L29.8743 170.272L31.1466 174.65L29.4497 175.143L28.1775 170.765L24.2912 171.894L25.7225 176.82L24.0256 177.313L21.99 170.307L34.6889 166.617L36.7245 173.623L35.0277 174.116L33.5964 169.19ZM40.2724 183.045L38.6235 183.681L37.3599 180.401L26.6866 184.512L25.9079 182.491L36.5813 178.379L35.3108 175.082L36.9597 174.446L40.2724 183.045ZM43.6813 190.188L31.918 196.187L30.9339 194.258L42.6972 188.258L43.6813 190.188ZM38.9842 207.91L37.8509 206.064L42.8447 195.351L34.4411 200.511L33.3079 198.665L44.5774 191.746L45.7107 193.592L40.7331 204.295L49.1204 199.146L50.2537 200.991L38.9842 207.91ZM59.1354 212.4L57.7716 213.523L55.5366 210.811L46.7087 218.084L45.3314 216.412L54.1593 209.139L51.9122 206.411L53.2759 205.288L59.1354 212.4ZM54.6401 226.709C53.765 225.846 53.1577 224.848 52.8181 223.712C52.4965 222.577 52.4793 221.431 52.7665 220.273C53.0717 219.116 53.6778 218.077 54.5847 217.157C55.4917 216.237 56.5173 215.62 57.6616 215.307C58.8148 215.003 59.9569 215.009 61.0877 215.323C62.2364 215.637 63.2483 216.225 64.1234 217.088C65.0074 217.959 65.6103 218.963 65.9319 220.098C66.2715 221.233 66.2932 222.375 65.9969 223.524C65.7006 224.672 65.099 225.707 64.192 226.627C63.285 227.547 62.255 228.168 61.1019 228.49C59.9576 228.802 58.8111 228.802 57.6624 228.487C56.5316 228.173 55.5241 227.58 54.6401 226.709ZM55.9605 225.369C56.583 225.983 57.2756 226.39 58.0384 226.59C58.81 226.782 59.589 226.749 60.3754 226.493C61.1797 226.236 61.9242 225.761 62.6088 225.066C63.2935 224.371 63.7539 223.625 63.99 222.826C64.2351 222.036 64.2519 221.261 64.0404 220.501C63.829 219.741 63.412 219.055 62.7896 218.441C62.1671 217.828 61.4745 217.421 60.7117 217.22C59.9489 217.02 59.1699 217.043 58.3745 217.291C57.5881 217.547 56.8526 218.023 56.1679 218.717C55.4832 219.412 55.0139 220.159 54.7599 220.958C54.5238 221.757 54.507 222.54 54.7096 223.309C54.9211 224.069 55.3381 224.756 55.9605 225.369ZM70.9796 223.634L65.7953 230.265C65.179 231.054 64.9194 231.807 65.0164 232.526C65.1235 233.253 65.5462 233.905 66.2846 234.483C67.033 235.068 67.7678 235.321 68.489 235.241C69.2202 235.17 69.894 234.74 70.5103 233.952L75.6946 227.321L77.401 228.655L72.2401 235.256C71.577 236.104 70.8306 236.678 70.0011 236.978C69.1716 237.278 68.3344 237.331 67.4894 237.137C66.6445 236.943 65.8478 236.553 65.0994 235.968C64.351 235.383 63.7806 234.703 63.3881 233.93C63.0057 233.165 62.865 232.348 62.966 231.478C63.0671 230.608 63.4492 229.749 64.1124 228.901L69.2732 222.3L70.9796 223.634ZM74.4294 234.629C75.1054 233.528 75.9655 232.696 77.0097 232.133C78.0647 231.577 79.1785 231.325 80.351 231.376C81.5411 231.423 82.6596 231.768 83.7066 232.41C84.9048 233.146 85.7858 234.096 86.3496 235.259C86.9308 236.419 87.1006 237.668 86.8588 239.006L84.6405 237.644C84.7136 236.871 84.5805 236.18 84.2414 235.57C83.9022 234.961 83.3926 234.447 82.7125 234.03C81.9677 233.572 81.2011 233.332 80.4128 233.309C79.6244 233.286 78.8707 233.484 78.1517 233.905C77.4434 234.332 76.8342 234.961 76.3238 235.792C75.8135 236.624 75.5281 237.452 75.4675 238.277C75.4177 239.108 75.5782 239.876 75.9491 240.579C76.3265 241.271 76.8876 241.846 77.6324 242.304C78.3125 242.721 79.001 242.943 79.6981 242.97C80.3952 242.997 81.0717 242.803 81.7277 242.388L83.9459 243.75C82.8622 244.571 81.6718 244.984 80.3748 244.991C79.0886 245.004 77.8464 244.642 76.6482 243.907C75.5904 243.257 74.7734 242.421 74.1973 241.398C73.6278 240.365 73.3524 239.252 73.3711 238.06C73.4006 236.874 73.7534 235.73 74.4294 234.629ZM99.3027 240.684L93.7237 252.653L91.7605 251.738L94.2008 246.502L88.5695 243.878L86.1292 249.113L84.166 248.198L89.745 236.229L91.7082 237.144L89.3161 242.276L94.9473 244.901L97.3395 239.769L99.3027 240.684ZM110.944 250.277L110.415 252.022L102.942 249.757L103.471 248.011L110.944 250.277ZM127.325 251.655C127.085 250.953 126.689 250.394 126.136 249.978C125.586 249.549 124.916 249.276 124.127 249.157C123.263 249.027 122.463 249.106 121.729 249.392C120.994 249.679 120.379 250.15 119.883 250.806C119.4 251.463 119.088 252.261 118.946 253.201C118.805 254.14 118.868 255.002 119.134 255.785C119.415 256.557 119.865 257.188 120.483 257.678C121.101 258.168 121.842 258.478 122.706 258.608C123.871 258.783 124.866 258.6 125.69 258.058C126.515 257.515 127.092 256.699 127.423 255.609L122.519 254.872L122.776 253.162L129.972 254.244L129.72 255.916C129.43 256.91 128.927 257.788 128.21 258.552C127.506 259.317 126.645 259.885 125.628 260.258C124.626 260.619 123.555 260.715 122.415 260.543C121.188 260.359 120.109 259.908 119.179 259.192C118.251 258.463 117.563 257.547 117.114 256.442C116.678 255.338 116.556 254.148 116.748 252.87C116.94 251.593 117.407 250.491 118.148 249.565C118.902 248.641 119.828 247.973 120.928 247.562C122.042 247.14 123.206 247.021 124.421 247.203C125.811 247.412 126.993 247.942 127.967 248.793C128.955 249.633 129.599 250.716 129.899 252.042L127.325 251.655ZM133.717 250.232L133.534 254.104L138.089 254.319L138.006 256.084L133.451 255.869L133.259 259.911L138.383 260.154L138.3 261.919L131.012 261.574L131.637 248.365L138.925 248.71L138.842 250.475L133.717 250.232ZM149.041 248.442L149.101 250.208L145.588 250.328L145.976 261.759L143.811 261.832L143.423 250.401L139.891 250.521L139.831 248.755L149.041 248.442ZM156.888 247.548L158.72 260.625L156.575 260.925L154.743 247.848L156.888 247.548ZM172.114 257.802L169.998 258.265L161.522 250.027L163.632 259.66L161.516 260.123L158.687 247.205L160.803 246.742L169.275 254.962L167.169 245.348L169.285 244.884L172.114 257.802ZM182.964 240.218L183.577 241.875L180.281 243.095L184.253 253.822L182.221 254.574L178.25 243.847L174.936 245.074L174.322 243.417L182.964 240.218ZM194.986 249.119C193.887 249.67 192.746 249.922 191.562 249.878C190.384 249.816 189.293 249.463 188.29 248.818C187.293 248.155 186.505 247.247 185.926 246.091C185.348 244.936 185.095 243.767 185.168 242.583C185.252 241.393 185.625 240.314 186.287 239.345C186.955 238.358 187.839 237.59 188.937 237.04C190.047 236.484 191.191 236.237 192.37 236.299C193.554 236.344 194.641 236.691 195.633 237.342C196.625 237.993 197.41 238.896 197.988 240.051C198.567 241.206 198.822 242.382 198.755 243.577C198.682 244.761 198.312 245.846 197.644 246.832C196.982 247.801 196.096 248.564 194.986 249.119ZM194.144 247.437C194.925 247.046 195.534 246.522 195.97 245.864C196.4 245.196 196.62 244.448 196.631 243.621C196.647 242.777 196.437 241.919 196.001 241.047C195.564 240.174 195.006 239.498 194.326 239.017C193.657 238.53 192.929 238.264 192.141 238.219C191.354 238.175 190.569 238.348 189.788 238.739C189.006 239.13 188.398 239.655 187.962 240.312C187.526 240.97 187.297 241.715 187.275 242.547C187.264 243.374 187.477 244.224 187.914 245.096C188.351 245.968 188.906 246.653 189.581 247.151C190.261 247.632 190.997 247.901 191.79 247.957C192.578 248.002 193.362 247.829 194.144 247.437ZM197.385 232.648L201.969 239.708C202.514 240.547 203.142 241.038 203.853 241.18C204.575 241.315 205.33 241.128 206.116 240.617C206.912 240.1 207.391 239.487 207.55 238.78C207.721 238.065 207.533 237.288 206.988 236.449L202.405 229.389L204.222 228.209L208.784 235.237C209.371 236.14 209.671 237.033 209.685 237.915C209.699 238.797 209.476 239.606 209.018 240.341C208.559 241.077 207.931 241.704 207.134 242.221C206.338 242.738 205.51 243.057 204.651 243.176C203.803 243.289 202.984 243.156 202.195 242.778C201.405 242.399 200.718 241.758 200.131 240.855L195.569 233.828L197.385 232.648ZM208.899 232.967C208.077 231.97 207.569 230.886 207.376 229.716C207.192 228.538 207.315 227.402 207.744 226.31C208.174 225.199 208.863 224.253 209.811 223.471C210.896 222.577 212.08 222.052 213.364 221.896C214.649 221.723 215.886 221.967 217.073 222.63L215.064 224.287C214.357 223.967 213.66 223.868 212.974 223.991C212.287 224.114 211.636 224.43 211.02 224.937C210.346 225.493 209.87 226.14 209.592 226.879C209.314 227.617 209.258 228.394 209.422 229.211C209.596 230.019 209.994 230.8 210.614 231.552C211.235 232.305 211.925 232.843 212.686 233.168C213.456 233.485 214.234 233.583 215.02 233.46C215.797 233.328 216.523 232.984 217.198 232.428C217.813 231.92 218.247 231.341 218.498 230.69C218.75 230.039 218.786 229.336 218.606 228.581L220.615 226.925C221.039 228.217 221.044 229.477 220.629 230.706C220.224 231.927 219.479 232.984 218.394 233.879C217.437 234.669 216.381 235.17 215.227 235.383C214.064 235.586 212.922 235.486 211.8 235.081C210.688 234.668 209.721 233.963 208.899 232.967ZM222.694 211.405L232.207 220.563L230.704 222.124L226.543 218.118L222.234 222.594L226.395 226.6L224.893 228.16L215.38 219.002L216.882 217.441L220.961 221.368L225.27 216.892L221.191 212.965L222.694 211.405ZM235.599 203.513L237.075 204.585L232.487 210.904L231.011 209.832L235.599 203.513ZM242.244 188.505C241.502 188.504 240.844 188.698 240.271 189.085C239.687 189.466 239.211 190.01 238.842 190.718C238.439 191.493 238.253 192.275 238.285 193.063C238.318 193.851 238.563 194.586 239.022 195.268C239.487 195.938 240.141 196.493 240.983 196.932C241.826 197.371 242.661 197.591 243.488 197.593C244.31 197.579 245.053 197.359 245.717 196.933C246.381 196.508 246.915 195.908 247.319 195.133C247.863 194.088 248.012 193.088 247.768 192.132C247.523 191.176 246.938 190.365 246.015 189.698L243.724 194.096L242.191 193.297L245.552 186.843L247.052 187.624C247.897 188.222 248.565 188.984 249.054 189.909C249.548 190.824 249.807 191.823 249.828 192.905C249.845 193.97 249.587 195.014 249.054 196.037C248.481 197.138 247.705 198.011 246.725 198.658C245.734 199.299 244.644 199.652 243.453 199.717C242.268 199.772 241.102 199.5 239.957 198.903C238.811 198.307 237.92 197.507 237.285 196.505C236.656 195.492 236.326 194.399 236.294 193.226C236.257 192.035 236.522 190.895 237.09 189.806C237.739 188.558 238.624 187.613 239.745 186.968C240.861 186.307 242.095 186.05 243.446 186.197L242.244 188.505ZM243.001 181.965L246.598 183.409L248.297 179.177L249.937 179.835L248.238 184.067L251.994 185.574L253.905 180.813L255.545 181.471L252.827 188.242L240.555 183.317L243.272 176.546L244.912 177.204L243.001 181.965ZM246.306 166.928L247.995 167.447L246.963 170.807L257.897 174.165L257.261 176.236L246.327 172.877L245.289 176.256L243.6 175.737L246.306 166.928ZM247.99 159.241L260.956 161.742L260.546 163.869L247.58 161.367L247.99 159.241ZM262.62 148.155L262.374 150.307L251.836 155.661L261.633 156.782L261.387 158.934L248.249 157.431L248.495 155.279L259.014 149.923L249.236 148.804L249.482 146.652L262.62 148.155ZM249.526 132.192L251.292 132.148L251.378 135.662L262.813 135.382L262.866 137.548L251.431 137.828L251.518 141.361L249.751 141.404L249.526 132.192ZM261.887 123.7C262.044 124.918 261.907 126.079 261.474 127.182C261.028 128.274 260.334 129.188 259.395 129.922C258.441 130.645 257.323 131.089 256.042 131.255C254.76 131.42 253.573 131.273 252.479 130.814C251.384 130.342 250.488 129.634 249.791 128.689C249.08 127.734 248.646 126.646 248.489 125.428C248.33 124.197 248.474 123.035 248.921 121.943C249.353 120.84 250.04 119.928 250.982 119.206C251.923 118.484 253.035 118.041 254.316 117.875C255.597 117.71 256.791 117.856 257.897 118.314C258.991 118.773 259.893 119.481 260.604 120.436C261.301 121.381 261.728 122.469 261.887 123.7ZM260.022 123.94C259.91 123.074 259.615 122.326 259.138 121.698C258.649 121.071 258.016 120.617 257.238 120.334C256.447 120.04 255.568 119.955 254.6 120.08C253.633 120.205 252.81 120.509 252.132 120.992C251.452 121.463 250.961 122.063 250.659 122.792C250.357 123.52 250.262 124.318 250.374 125.185C250.485 126.052 250.78 126.799 251.257 127.427C251.734 128.055 252.361 128.517 253.14 128.813C253.918 129.096 254.79 129.175 255.757 129.05C256.725 128.925 257.554 128.627 258.247 128.154C258.925 127.671 259.422 127.064 259.736 126.334C260.038 125.605 260.133 124.807 260.022 123.94ZM247.127 116.043L255.297 114.02C256.269 113.779 256.938 113.346 257.305 112.72C257.669 112.082 257.738 111.308 257.513 110.398C257.285 109.476 256.862 108.824 256.245 108.441C255.626 108.047 254.83 107.97 253.859 108.21L245.689 110.233L245.168 108.13L253.301 106.117C254.347 105.858 255.288 105.866 256.126 106.142C256.964 106.417 257.656 106.892 258.201 107.566C258.747 108.24 259.133 109.038 259.362 109.96C259.59 110.882 259.62 111.769 259.452 112.619C259.282 113.457 258.888 114.188 258.272 114.81C257.656 115.432 256.826 115.873 255.781 116.131L247.647 118.145L247.127 116.043ZM251.198 105.283C249.988 105.737 248.798 105.866 247.629 105.669C246.454 105.461 245.42 104.976 244.526 104.216C243.615 103.449 242.944 102.49 242.512 101.34C242.017 100.024 241.905 98.7331 242.174 97.4684C242.427 96.1963 243.059 95.1063 244.071 94.1985L244.987 96.6353C244.455 97.2004 244.136 97.8277 244.029 98.5171C243.923 99.2065 244.01 99.9248 244.29 100.672C244.598 101.49 245.055 102.15 245.664 102.653C246.272 103.155 246.989 103.461 247.814 103.57C248.636 103.667 249.503 103.545 250.416 103.202C251.329 102.859 252.063 102.38 252.617 101.766C253.167 101.14 253.511 100.436 253.65 99.653C253.777 98.8747 253.687 98.0764 253.38 97.2582C253.099 96.5111 252.692 95.9131 252.158 95.4642C251.624 95.0153 250.971 94.7532 250.198 94.678L249.283 92.2412C250.643 92.2583 251.836 92.6624 252.864 93.4535C253.887 94.2328 254.646 95.2806 255.14 96.5968C255.577 97.7589 255.709 98.9204 255.536 100.081C255.351 101.247 254.885 102.294 254.139 103.224C253.387 104.142 252.407 104.828 251.198 105.283ZM235.282 85.2164L247.039 79.2043L248.025 81.1328L242.883 83.7626L245.712 89.2942L250.854 86.6645L251.84 88.593L240.083 94.6051L239.097 92.6766L244.138 90.0987L241.31 84.5671L236.268 87.1449L235.282 85.2164ZM232.009 70.4698L233.501 69.4208L237.992 75.8091L236.5 76.8581L232.009 70.4698ZM219.966 59.2946C219.723 59.9959 219.692 60.6805 219.871 61.3483C220.041 62.0249 220.401 62.6527 220.95 63.2318C221.551 63.8661 222.229 64.2963 222.985 64.5226C223.741 64.7488 224.515 64.756 225.31 64.5443C226.095 64.3233 226.832 63.886 227.522 63.2324C228.211 62.5788 228.692 61.8614 228.963 61.0802C229.217 60.2985 229.251 59.5244 229.066 58.7578C228.88 57.9913 228.487 57.2909 227.885 56.6566C227.075 55.8017 226.178 55.3343 225.194 55.2543C224.211 55.1743 223.254 55.4623 222.322 56.1184L225.734 59.7172L224.479 60.9068L219.473 55.6258L220.7 54.4624C221.54 53.8576 222.478 53.475 223.512 53.3144C224.538 53.1446 225.567 53.2258 226.597 53.558C227.61 53.8896 228.513 54.4737 229.306 55.3102C230.16 56.211 230.733 57.2298 231.025 58.3666C231.308 59.512 231.286 60.6583 230.96 61.8054C230.625 62.9434 229.989 63.9568 229.051 64.8457C228.114 65.7346 227.068 66.3159 225.914 66.5898C224.751 66.8544 223.609 66.8106 222.49 66.4581C221.352 66.1052 220.361 65.483 219.516 64.5913C218.548 63.571 217.943 62.4259 217.699 61.156C217.437 59.8857 217.596 58.6355 218.175 57.4056L219.966 59.2946ZM214.036 56.4588L216.57 53.5257L213.12 50.5447L214.275 49.2076L217.725 52.1886L220.371 49.126L216.489 45.7725L217.644 44.4353L223.165 49.2049L214.52 59.2119L208.999 54.4424L210.154 53.1052L214.036 56.4588ZM200.884 48.4358L201.925 47.0077L204.766 49.0775L211.501 39.833L213.252 41.1084L206.516 50.353L209.373 52.4341L208.332 53.8622L200.884 48.4358ZM194.189 44.3137L200.771 32.8661L202.649 33.9458L196.066 45.3934L194.189 44.3137ZM188.474 26.8504L190.427 27.7872L192.038 39.4968L196.303 30.6058L198.256 31.5426L192.537 43.4658L190.584 42.529L188.965 30.8365L184.708 39.7103L182.755 38.7735L188.474 26.8504ZM169.139 34.0232L169.672 32.3383L173.023 33.397L176.469 22.4902L178.534 23.1426L175.089 34.0494L178.459 35.1138L177.927 36.7988L169.139 34.0232ZM165.116 19.5803C166.32 19.8261 167.374 20.3322 168.277 21.0985C169.166 21.8747 169.805 22.8262 170.196 23.9531C170.571 25.0899 170.63 26.2912 170.371 27.5571C170.113 28.823 169.589 29.899 168.801 30.7851C168 31.6687 167.039 32.2871 165.92 32.6403C164.786 33.0033 163.617 33.0619 162.413 32.8161C161.197 32.5677 160.144 32.0554 159.256 31.2792C158.352 30.5129 157.711 29.5676 157.333 28.4432C156.955 27.3188 156.896 26.1237 157.154 24.8578C157.413 23.592 157.937 22.5098 158.729 21.6112C159.517 20.7251 160.479 20.1005 161.613 19.7375C162.732 19.3843 163.9 19.3319 165.116 19.5803ZM164.74 21.4232C163.883 21.2483 163.081 21.2848 162.332 21.5327C161.581 21.793 160.946 22.245 160.426 22.8888C159.892 23.5424 159.527 24.347 159.332 25.3026C159.137 26.2583 159.158 27.1353 159.396 27.9336C159.621 28.7295 160.03 29.3882 160.621 29.9098C161.213 30.4314 161.937 30.7796 162.793 30.9545C163.65 31.1294 164.452 31.0929 165.201 30.845C165.95 30.5972 166.59 30.1526 167.121 29.5114C167.641 28.8676 167.998 28.0679 168.193 27.1123C168.388 26.1567 168.375 25.2748 168.152 24.4665C167.914 23.6681 167.501 23.0019 166.912 22.4679C166.32 21.9463 165.596 21.5981 164.74 21.4232ZM153.091 31.0658L153.824 22.6807C153.911 21.6838 153.718 20.9104 153.244 20.3605C152.758 19.8094 152.049 19.4931 151.115 19.4116C150.168 19.3289 149.414 19.5174 148.853 19.977C148.279 20.4354 147.948 21.1631 147.861 22.16L147.129 30.545L144.971 30.3566L145.7 22.0094C145.794 20.9368 146.107 20.0486 146.639 19.3449C147.171 18.6412 147.844 18.1405 148.658 17.8429C149.472 17.5453 150.353 17.4378 151.299 17.5205C152.245 17.6031 153.094 17.8616 153.844 18.2958C154.582 18.729 155.145 19.3377 155.535 20.1218C155.924 20.906 156.072 21.8344 155.978 22.907L155.249 31.2542L153.091 31.0658ZM144.2 23.7274C144.232 25.019 143.963 26.185 143.394 27.2256C142.812 28.2664 142.015 29.0846 141.004 29.6801C139.98 30.2885 138.854 30.608 137.625 30.6387C136.22 30.6739 134.964 30.3568 133.857 29.6876C132.739 29.0313 131.917 28.0762 131.391 26.8223L133.993 26.7573C134.353 27.4452 134.84 27.9525 135.457 28.2792C136.073 28.6059 136.78 28.7593 137.578 28.7393C138.452 28.7175 139.226 28.5018 139.9 28.0921C140.573 27.6825 141.098 27.1056 141.472 26.3613C141.833 25.6174 142.002 24.7579 141.978 23.7829C141.953 22.8079 141.742 21.9579 141.344 21.2329C140.933 20.5083 140.38 19.9519 139.686 19.5638C138.993 19.1883 138.209 19.0115 137.335 19.0334C136.538 19.0533 135.839 19.2418 135.24 19.5989C134.641 19.956 134.179 20.487 133.854 21.192L131.252 21.257C131.714 19.9784 132.488 18.9834 133.572 18.2721C134.644 17.5611 135.883 17.1881 137.288 17.1529C138.529 17.1219 139.67 17.3785 140.71 17.9227C141.75 18.4796 142.587 19.2633 143.22 20.2737C143.841 21.2846 144.168 22.4358 144.2 23.7274ZM120.028 32.182L118.201 19.104L120.346 18.8043L121.145 24.5248L127.298 23.665L126.499 17.9446L128.644 17.6449L130.471 30.7229L128.326 31.0226L127.543 25.415L121.39 26.2748L122.173 31.8823L120.028 32.182ZM105.057 30.4662L104.549 28.7145L112.048 26.5376L112.556 28.2893L105.057 30.4662ZM90.5473 38.2148C91.131 38.6732 91.7677 38.9267 92.4574 38.9753C93.1524 39.0354 93.8632 38.9005 94.5899 38.5707C95.3857 38.2095 96.0139 37.7087 96.4745 37.0684C96.935 36.4282 97.1949 35.6981 97.254 34.8784C97.3016 34.0639 97.1291 33.2241 96.7364 32.3591C96.3437 31.494 95.8226 30.8055 95.1729 30.2936C94.5169 29.7985 93.7963 29.5135 93.0112 29.4387C92.2261 29.3638 91.4356 29.507 90.6397 29.8683C89.5671 30.3552 88.8324 31.0503 88.4356 31.9538C88.0389 32.8572 87.9985 33.8562 88.3146 34.9508L92.8301 32.9011L93.5448 34.4755L86.9185 37.4833L86.2195 35.9435C85.9223 34.9516 85.8668 33.9405 86.0529 32.9101C86.2274 31.885 86.6399 30.9396 87.2903 30.0741C87.9344 29.2253 88.7812 28.5627 89.8308 28.0863C90.9612 27.5732 92.1113 27.3641 93.2811 27.4591C94.4562 27.5656 95.5326 27.9603 96.5103 28.6432C97.4765 29.3314 98.2266 30.2638 98.7606 31.4402C99.2946 32.6167 99.5026 33.7951 99.3846 34.9754C99.255 36.161 98.8409 37.2253 98.1423 38.1684C97.4373 39.1283 96.5254 39.8622 95.4066 40.37C94.1263 40.9512 92.8463 41.1497 91.5664 40.9655C90.2802 40.7982 89.1504 40.2399 88.1771 39.2907L90.5473 38.2148ZM85.9649 42.8857L84.0103 39.5386L80.0726 41.8382L79.1815 40.3123L83.1192 38.0127L81.0784 34.518L76.6484 37.105L75.7573 35.5792L82.0577 31.8999L88.7264 43.3192L82.4261 46.9985L81.535 45.4727L85.9649 42.8857ZM74.1129 52.7314L73.0988 51.2843L75.9774 49.2671L69.4132 39.9001L71.187 38.6571L77.7512 48.024L80.6453 45.9959L81.6594 47.4429L74.1129 52.7314ZM67.9818 57.763L59.3359 47.7819L60.9731 46.3638L69.6189 56.3448L67.9818 57.763ZM49.6571 57.4619L51.1759 55.9176L62.7762 58.1856L55.7456 51.2711L57.2643 49.7268L66.6927 58.9994L65.1739 60.5437L53.5871 58.289L60.6042 65.1902L59.0854 66.7345L49.6571 57.4619ZM50.0998 78.099L48.6833 77.0427L50.7846 74.2249L41.6155 67.3871L42.9104 65.6508L52.0795 72.4886L54.1922 69.6556L55.6086 70.7119L50.0998 78.099ZM35.1562 77.165C35.7808 76.1069 36.6024 75.2755 37.6213 74.6707C38.6446 74.0833 39.7525 73.7886 40.9451 73.7865C42.1422 73.8018 43.2971 74.1378 44.4097 74.7945C45.5224 75.4512 46.3692 76.2966 46.9502 77.3309C47.5247 78.376 47.7966 79.4852 47.766 80.6585C47.7398 81.8491 47.4145 82.9735 46.79 84.0316C46.159 85.1006 45.3319 85.9288 44.3086 86.5162C43.2897 87.121 42.1872 87.419 41.0011 87.4101C39.8149 87.4013 38.6655 87.0685 37.5528 86.4118C36.4402 85.7551 35.5879 84.9064 34.996 83.8658C34.4151 82.8316 34.1377 81.7192 34.1638 80.5285C34.1945 79.3552 34.5253 78.234 35.1562 77.165ZM36.7761 78.1211C36.3319 78.8738 36.105 79.6445 36.0955 80.4331C36.0969 81.2282 36.3173 81.9761 36.7569 82.6767C37.2009 83.3948 37.8428 84.0017 38.6828 84.4974C39.5227 84.9932 40.3588 85.2587 41.1911 85.294C42.0169 85.3401 42.7728 85.1685 43.4586 84.779C44.1444 84.3896 44.7095 83.8185 45.1537 83.0658C45.598 82.3132 45.8248 81.5425 45.8344 80.7539C45.8439 79.9652 45.6321 79.2151 45.199 78.5035C44.7595 77.8029 44.1197 77.2046 43.2798 76.7089C42.4399 76.2131 41.6015 75.9389 40.7648 75.8863C39.9325 75.851 39.168 76.0249 38.4712 76.4079C37.7854 76.7974 37.2204 77.3685 36.7761 78.1211ZM42.082 92.2958L34.3994 88.8571C33.4861 88.4483 32.6921 88.3774 32.0175 88.6445C31.3377 88.923 30.8063 89.4901 30.4234 90.3456C30.0352 91.2127 29.9663 91.9868 30.2166 92.6678C30.4617 93.3604 31.041 93.9111 31.9543 94.3199L39.6369 97.7586L38.752 99.7356L31.1041 96.3124C30.1214 95.8725 29.3847 95.2861 28.894 94.553C28.4034 93.8199 28.1508 93.0199 28.1364 92.153C28.122 91.2862 28.3088 90.4192 28.6969 89.5521C29.085 88.685 29.6071 87.9681 30.2633 87.4013C30.9142 86.8461 31.6739 86.5131 32.5423 86.4022C33.4107 86.2913 34.3363 86.4558 35.319 86.8957L42.9669 90.3188L42.082 92.2958ZM32.2388 98.2861C33.47 98.6777 34.4843 99.3126 35.2816 100.191C36.0751 101.081 36.5879 102.102 36.8201 103.252C37.0606 104.419 36.9947 105.587 36.6223 106.758C36.1961 108.098 35.4861 109.181 34.492 110.008C33.5062 110.851 32.3349 111.316 30.9781 111.403L31.767 108.922C32.5345 108.808 33.1734 108.512 33.6836 108.037C34.1938 107.561 34.5698 106.943 34.8116 106.182C35.0765 105.349 35.1255 104.548 34.9586 103.777C34.7917 103.006 34.4177 102.322 33.8366 101.725C33.2517 101.14 32.4945 100.7 31.565 100.405C30.6356 100.109 29.7632 100.031 28.9479 100.17C28.1288 100.322 27.4224 100.662 26.8289 101.191C26.2474 101.724 25.8242 102.407 25.5593 103.24C25.3174 104 25.2673 104.722 25.409 105.405C25.5506 106.088 25.9016 106.698 26.4618 107.235L25.6729 109.716C24.6155 108.861 23.9279 107.805 23.6101 106.548C23.2884 105.302 23.3406 104.009 23.7668 102.67C24.143 101.487 24.7582 100.493 25.6123 99.6877C26.4785 98.8866 27.4926 98.3518 28.6546 98.0833C29.8128 97.8269 31.0075 97.8945 32.2388 98.2861ZM32.3799 123.856L19.4141 121.354L19.8245 119.227L25.4959 120.321L26.6731 114.221L21.0017 113.127L21.4121 111L34.3779 113.502L33.9675 115.629L28.408 114.556L27.2309 120.656L32.7903 121.729L32.3799 123.856ZM25.8731 137.494L24.0514 137.401L24.4472 129.602L26.2688 129.695L25.8731 137.494Z" fill="white"/>
</g>
<defs>
<filter id="filter0_d_247_488" x="-3.6665" y="0.333496" width="289.659" height="289.659" filterUnits="userSpaceOnUse" color-interpolation-filters="sRGB">
<feFlood flood-opacity="0" result="BackgroundImageFix"/>
<feColorMatrix in="SourceAlpha" type="matrix" values="0 0 0 0 0 0 0 0 0 0 0 0 0 0 0 0 0 0 127 0" result="hardAlpha"/>
<feOffset dy="4"/>
<feGaussianBlur stdDeviation="2"/>
<feComposite in2="hardAlpha" operator="out"/>
<feColorMatrix type="matrix" values="0 0 0 0 0 0 0 0 0 0 0 0 0 0 0 0 0 0 0.25 0"/>
<feBlend mode="normal" in2="BackgroundImageFix" result="effect1_dropShadow_247_488"/>
<feBlend mode="normal" in="SourceGraphic" in2="effect1_dropShadow_247_488" result="shape"/>
</filter>
<clipPath id="clip0_247_488">
<rect width="282" height="282" fill="white"/>
</clipPath>
<clipPath id="clip1_247_488">
<rect x="232.837" y="49" width="184" height="184" transform="rotate(90 232.837 49)" fill="white"/>
</clipPath>
</defs>
</svg>
