<svg width="30" height="30" viewBox="0 0 30 30" fill="none" xmlns="http://www.w3.org/2000/svg">
<rect x="0.25" y="0.25" width="29.5" height="29.5" rx="14.75" stroke="url(#paint0_linear_214_438)" stroke-opacity="0.6" stroke-width="0.5"/>
<path d="M13.6461 20.5538L13.6088 15.4786H11.6666V13.5048H13.6461C13.6907 12.3933 13.4079 11.1671 14.3101 10.2511C15.0404 9.51156 16.0804 9.42013 17.1442 9.44881L18.2712 9.51514L18.3334 9.54741V11.2935H16.9422C16.7661 11.2935 16.4595 11.3751 16.3155 11.4674C16.1622 11.566 16.0027 11.8367 16.0027 11.9989V13.5066H18.2205L17.9574 15.4804H16.0027V20.5556H13.6472L13.6461 20.5538Z" fill="white"/>
<path d="M17.1149 9.94727V9.94824L17.8336 9.99023V10.7939H16.942C16.7926 10.794 16.6245 10.8251 16.485 10.8633C16.3826 10.8913 16.2623 10.9326 16.152 10.9873L16.0455 11.0469C15.8785 11.1543 15.7511 11.3192 15.6705 11.4561C15.5938 11.5865 15.5026 11.787 15.5026 11.999V14.0068H17.65L17.5192 14.9805H15.5026V20.0557H14.1422L14.109 15.4746L14.1051 14.9785H12.1666V14.0049H14.1266L14.1461 13.5244C14.158 13.2271 14.1472 12.9221 14.1412 12.6455C14.1351 12.3606 14.1336 12.0976 14.1549 11.8467C14.1967 11.3558 14.3252 10.9486 14.6656 10.6025C15.2309 10.0301 16.064 9.92023 17.1149 9.94727Z" stroke="url(#paint1_linear_214_438)" stroke-opacity="0.6"/>
<defs>
<linearGradient id="paint0_linear_214_438" x1="0" y1="0" x2="30" y2="30" gradientUnits="userSpaceOnUse">
<stop stop-color="white"/>
<stop offset="0.495192" stop-color="white" stop-opacity="0"/>
<stop offset="1" stop-color="white"/>
</linearGradient>
<linearGradient id="paint1_linear_214_438" x1="11.6666" y1="9.44434" x2="21.4707" y2="15.3268" gradientUnits="userSpaceOnUse">
<stop stop-color="white"/>
<stop offset="0.495192" stop-color="white" stop-opacity="0.1"/>
<stop offset="1" stop-color="white"/>
</linearGradient>
</defs>
</svg>
