<svg width="30" height="28" viewBox="0 0 30 28" fill="none" xmlns="http://www.w3.org/2000/svg">
<path d="M17.9423 23.2585L24.312 12.1199L27.8972 14.128L21.5538 25.2711L17.9423 23.2585ZM24.821 14.4732C24.6204 14.5083 24.5415 14.5819 24.4162 14.7265C24.227 14.9437 23.3841 16.4017 23.2816 16.6794C22.9863 17.4785 23.9194 18.0112 24.446 17.4496C24.5932 17.2927 25.606 15.4957 25.6499 15.2977C25.7638 14.7808 25.3458 14.3821 24.821 14.4732Z" fill="black"/>
<path d="M22.8007 25.8922L24.0001 23.8061C25.1698 23.5818 25.2811 22.6495 25.2688 21.6244L27.3357 18.1382V22.8362C27.3357 24.0488 25.6394 25.8922 24.411 25.8922H22.8007Z" fill="black"/>
<path d="M28.7139 12.9471L25.0349 10.9091C25.4432 10.0128 25.9452 8.91409 27.1421 9.16467C27.518 9.24353 28.9452 10.1048 29.1748 10.4167C29.8704 11.3647 29.0828 12.0954 28.7139 12.9462V12.9471Z" fill="black"/>
<path d="M17.2818 24.5122L20.6979 26.516C20.563 26.622 20.4263 26.7298 20.2835 26.8253C19.9436 27.0522 18.5776 27.846 18.2482 27.9441C17.5902 28.1404 17.2792 27.8031 17.2161 27.1731C17.1854 26.87 17.1837 24.6025 17.2818 24.5122Z" fill="black"/>
<path d="M27.3348 7.75578H26.3167C26.0548 7.75578 25.4949 8.10975 25.2329 8.21576V7.69007H21.0265V11.8956H22.8007L21.6047 13.9844L21.0265 13.9984V15.0165C19.5904 17.6284 17.8539 20.1903 16.4809 22.8249C16.2786 23.2139 15.8352 24.0664 15.8352 24.4791V25.8914H2.92323C1.63001 25.8914 -0.0276862 24.0077 0.000350924 22.7031V3.1901C0.166822 1.52978 1.45741 0.193632 3.11861 0H24.1517C25.862 0.142814 27.2052 1.55168 27.3383 3.25319C27.4522 4.70061 27.249 6.29434 27.3357 7.75666L27.3348 7.75578ZM6.30696 2.10454H3.11949C2.83386 2.10454 2.10139 2.88169 2.10139 3.18923V5.58816H6.30696V2.10542V2.10454ZM25.232 5.58728V3.18835C25.232 2.88082 24.4996 2.10366 24.2139 2.10366H21.0265V5.5864H25.232V5.58728ZM6.30696 7.69007H2.10139V11.8956H6.30696V7.69007ZM10.8893 8.69152C10.2979 8.79403 9.86505 9.39157 9.79671 9.96458C9.92025 12.0849 9.60746 14.4383 9.78707 16.5305C9.88082 17.6222 10.8718 18.2618 11.8846 17.7694L17.6305 14.447C18.4462 13.8635 18.3962 12.6553 17.5648 12.1042C15.7064 11.1886 13.8805 9.77183 12.0248 8.90443C11.6121 8.71167 11.3703 8.60828 10.8893 8.69152ZM6.30696 13.9984H2.10139V18.204H6.30696V13.9984ZM6.30696 20.3068H2.10139V22.7057C2.10139 23.0483 2.83911 23.7904 3.18607 23.7904H6.30696V20.3077V20.3068Z" fill="black"/>
</svg>
