<?xml version="1.0" encoding="UTF-8"?>
<svg id="Layer_2" data-name="Layer 2" xmlns="http://www.w3.org/2000/svg" viewBox="0 0 408.7 409.6">
  <g id="Layer_1-2" data-name="Layer 1">
    <g>
      <path d="M408.7,153.21v6.38c-2.3,3.93-4.43,7.59-9.36,8.6-4.35.88-23.02.78-27.78.2-14.21-1.74-14.21-22.24,0-23.98,4.76-.58,23.44-.68,27.78.2,4.94,1,7.06,4.67,9.36,8.6Z"/>
      <path d="M15.67,64.03c1.55-.09,3.54.46,4.98,1.02,3.86,1.5,21.17,18.63,23.03,22.46,5.24,10.76-5.3,21.09-16.11,16.1-3.24-1.49-20.46-18.7-21.96-21.94-3.65-7.92,1.02-17.12,10.06-17.64Z"/>
      <path d="M391.73,64.03c9.54-.52,15.08,9.33,11.25,17.64-1.49,3.24-18.72,20.45-21.96,21.94-10.8,4.98-21.35-5.34-16.11-16.1,1.76-3.62,18.84-20.63,22.47-22.22,1.11-.49,3.2-1.19,4.34-1.25Z"/>
      <path d="M32.43,207.67c9.54-.52,15.08,9.33,11.25,17.64-1.49,3.23-18.71,20.45-21.96,21.94-10.81,4.98-21.35-5.34-16.11-16.1,1.76-3.62,18.84-20.63,22.47-22.22,1.11-.49,3.2-1.19,4.34-1.25Z"/>
      <path d="M374.96,207.67c1.55-.09,3.54.46,4.98,1.02,3.86,1.5,21.17,18.63,23.03,22.46,5.24,10.76-5.3,21.08-16.11,16.1-3.24-1.49-20.46-18.71-21.96-21.94-3.65-7.92,1.03-17.12,10.06-17.64Z"/>
      <path d="M9.26,144.61c3.79-.77,26.19-.72,29.78.2,11.88,3.02,11.39,20.95-.6,23.38-3.79.77-26.18.72-29.78-.2-11.91-3.03-11.36-20.95.6-23.38Z"/>
      <g>
        <path d="M214.68,0c111.7,9.25,172.06,136.17,106.04,228.47-6.91,9.66-15.25,17.83-21.03,28.46-5.05,9.29-8.9,20.57-9.97,31.14h-37.53v-108.12c-4.37-10.8-9.46-21.3-14.48-31.81-5.96-12.46-15.08-33.98-22.38-44.67-5.83-8.55-16.27-8.54-22.09,0-7.75,11.36-17.68,34.6-23.97,47.86-4.48,9.44-8.98,18.91-12.89,28.61v108.12h-37.53c-.94-30.03-25.38-48.04-38.97-71.57C27.19,125.21,88.4,7.16,193.92,0h20.76Z"/>
        <g>
          <path d="M175.55,408.56c-12.17-1.56-25.19-13.06-28.74-24.74h114.98c-3.55,11.68-16.57,23.18-28.74,24.74-10.85,1.39-46.64,1.39-57.49,0Z"/>
          <path d="M288.13,312.01v15.56c0,13.23-14.74,29.18-27.77,31.3-33.76-.07-71.66,3.56-105.2,1.05-16.12-1.21-34.7-15.06-34.7-32.35v-15.56h167.67Z"/>
          <path d="M228.25,199.49v88.57h-47.91v-88.57c16.04,4.78,31.87,4.78,47.91,0Z"/>
          <path d="M205.08,136.46l18.38,39.09c-12.91,4.19-25.41,4.19-38.33,0l18.17-38.07,1.78-1.02Z"/>
        </g>
      </g>
    </g>
  </g>
</svg>