<svg width="30" height="30" viewBox="0 0 30 30" fill="none" xmlns="http://www.w3.org/2000/svg">
<rect x="0.25" y="0.25" width="29.5" height="29.5" rx="14.75" stroke="url(#paint0_linear_214_442)" stroke-opacity="0.6" stroke-width="0.5"/>
<path d="M11.3315 9.00789L18.6186 9C19.8693 9.14272 20.8714 10.1576 20.9991 11.4083L21.0006 18.5639C20.8875 19.836 19.8596 20.8749 18.5904 20.9988L11.4348 21.0003C10.1713 20.8877 9.14561 19.8754 8.99988 18.6184L9.00288 11.3553C9.15612 10.1463 10.121 9.16789 11.3315 9.00789ZM18.7948 10.1895C17.8472 10.3367 17.991 11.9243 19.0667 11.8135C20.1255 11.7046 20.006 10.0017 18.7948 10.1895ZM14.6558 11.1206C11.9952 11.3305 10.3539 14.182 11.4543 16.615C12.675 19.3139 16.406 19.6925 18.1499 17.2903C20.1176 14.5793 17.9786 10.8584 14.6562 11.1206H14.6558Z" fill="white"/>
<path d="M14.7114 12.8106C16.3016 12.6419 17.5516 14.0556 17.1193 15.6128C16.6521 17.2966 14.4368 17.7615 13.3101 16.4215C12.2096 15.1133 12.9961 12.9924 14.7114 12.8102V12.8106Z" fill="white"/>
<defs>
<linearGradient id="paint0_linear_214_442" x1="0" y1="0" x2="30" y2="30" gradientUnits="userSpaceOnUse">
<stop stop-color="white"/>
<stop offset="0.495192" stop-color="white" stop-opacity="0"/>
<stop offset="1" stop-color="white"/>
</linearGradient>
</defs>
</svg>
