<svg width="16" height="20" viewBox="0 0 16 20" fill="none" xmlns="http://www.w3.org/2000/svg">
<path d="M8.01967 0L9.24523 0.200005C12.7667 1.04482 15.2068 4.36366 15.0136 7.98979C14.7995 12.0118 11.1182 16.9952 8.19624 19.6104C8.03269 19.7568 7.86446 19.9047 7.6681 20H7.35559C7.14569 19.8958 6.9634 19.7302 6.78839 19.5713C3.88259 16.9411 0.217386 12.018 0.0100892 7.99031C-0.19825 3.94021 2.84402 0.327613 6.90975 0.0406261L7.00402 0H8.01967ZM7.30872 3.33186C4.00603 3.50426 2.19088 7.29238 4.15968 9.9737C6.14254 12.6738 10.3869 12.0102 11.4588 8.84971C12.3984 6.07776 10.2291 3.17977 7.30872 3.33238V3.33186Z" fill="white"/>
</svg>
