<svg width="15" height="11" viewBox="0 0 15 11" fill="none" xmlns="http://www.w3.org/2000/svg">
<g clip-path="url(#clip0_214_458)">
<path d="M15 3.09424V9.82437C14.8547 10.5255 14.3418 10.9531 13.6101 11.0001L1.30818 10.9982C0.634351 10.9295 0.127319 10.4747 0.00427246 9.82437V3.09424L6.1863 7.11552C6.98748 7.65775 8.01521 7.65813 8.81716 7.11552L14.9992 3.09424H15Z" fill="white"/>
<path d="M15.0001 1.17534V1.54764C14.9091 1.95241 14.6915 2.26476 14.3357 2.48738C12.3212 3.69021 10.4001 5.19738 8.37864 6.37081C7.80051 6.70646 7.38762 6.79276 6.77278 6.45673L0.37395 2.26094C0.177075 2.05283 0.076294 1.81914 0.0048096 1.54764C0.0153565 1.42851 -0.00964353 1.29104 0.0048096 1.17534C0.082544 0.552921 0.67981 0.0507863 1.30872 0.00190926L13.6396 0C14.2911 0.0210018 14.92 0.534592 15.0001 1.17534Z" fill="white"/>
</g>
<defs>
<clipPath id="clip0_214_458">
<rect width="15" height="11" fill="white"/>
</clipPath>
</defs>
</svg>
