<svg width="30" height="26" viewBox="0 0 30 26" fill="none" xmlns="http://www.w3.org/2000/svg">
<path d="M15.7901 3.7654L19.4038 17.3562C15.8739 15.5975 11.8611 15.6552 8.08704 16.5371L6.39539 10.1256C9.55349 9.11794 12.7095 7.58759 14.8453 4.98045C15.1344 4.62851 15.3585 4.2399 15.6152 3.867C15.6633 3.79682 15.6026 3.72245 15.7901 3.76435V3.7654Z" fill="black"/>
<path d="M17.0283 0.0116068C17.6086 -0.0732378 18.2245 0.316418 18.4067 0.874716C19.7862 6.60225 21.6539 12.2334 22.9957 17.9683C23.0931 18.3841 23.2272 18.6303 23.1214 19.0702C22.8207 20.3177 21.1689 20.3565 20.7174 19.2252C19.3421 13.6066 17.5363 8.07394 16.206 2.44696C16.0939 1.97455 15.8635 1.40892 15.985 0.934422C16.1065 0.459921 16.5601 0.0796919 17.0283 0.0116068Z" fill="black"/>
<path d="M5.57218 10.3677L7.27326 16.731C5.38887 17.1678 3.16615 18.4981 1.37499 17.1207C-0.643474 15.5683 -0.440266 12.2992 1.9888 11.2926C3.06874 10.8453 4.43987 10.6892 5.57218 10.3677Z" fill="black"/>
<path d="M4.00635 18.4573L7.12674 17.6099L7.30795 17.7062L10.3163 23.2641C10.663 24.6614 9.3348 25.8209 7.99509 25.1925C7.39385 24.9107 6.92249 23.8161 6.5852 23.2243C5.69381 21.6562 4.8747 20.0389 4.00635 18.4583V18.4573Z" fill="black"/>
<path d="M22.271 7.53639C22.4889 7.57515 22.8597 7.90719 22.956 8.10831C23.0524 8.30942 23.4735 9.8869 23.4745 10.0891C23.4777 10.8097 22.6009 11.1753 22.0364 11.3869L21.0538 7.53639C21.4246 7.58143 21.9211 7.47459 22.271 7.53639Z" fill="black"/>
<path d="M25.65 12.1285L28.9055 13.9438C29.2418 14.2538 29.0166 14.6885 28.5955 14.6529L25.5369 12.9131C25.1839 12.7067 25.1629 12.1201 25.6511 12.1285H25.65Z" fill="black"/>
<path d="M25.1942 1.41916C25.4823 1.37936 25.742 1.52076 25.6949 1.83919L23.8849 5.06433C23.5308 5.37543 23.0459 5.10519 23.2334 4.65268L25.1942 1.41811V1.41916Z" fill="black"/>
<path d="M29.2816 7.00525C29.4806 6.97696 29.7058 6.93297 29.8598 7.09638C29.9729 7.23988 29.997 7.59706 29.8001 7.67981L26.267 8.63196C25.8249 8.7168 25.6636 8.10404 26.025 7.91026L29.2826 7.0042L29.2816 7.00525Z" fill="black"/>
</svg>
