<?xml version="1.0" encoding="UTF-8"?>
<svg id="Layer_2" data-name="Layer 2" xmlns="http://www.w3.org/2000/svg" viewBox="0 0 360.82 360.8">
  <g id="Layer_1-2" data-name="Layer 1">
    <g>
      <path d="M177.56,216.95l122.85-.21c5.13.12,9.58,3.59,11.08,8.42l.54,124.02c-.12,5.13-3.59,9.58-8.42,11.08l-124.02.54c-5.13-.12-9.58-3.59-11.08-8.42l-.52-124.74c.5-5.32,4.43-9.59,9.56-10.69Z"/>
      <path d="M261.56.21c3.57-.58,7.16.01,9.97,2.42l86.62,86.62c3.55,4.29,3.56,10.73,0,15.04l-86.62,86.62c-4.29,3.55-10.73,3.56-15.04,0l-86.62-86.62c-3.55-4.29-3.56-10.73,0-15.04L256.48,2.63c1.32-1.21,3.33-2.14,5.07-2.42Z"/>
      <g>
        <path d="M9.56,48.95l122.85-.21c5.13.12,9.58,3.59,11.08,8.42l.54,124.02c-.12,5.13-3.59,9.58-8.42,11.08l-124.02.54c-5.13-.12-9.58-3.59-11.08-8.42L0,59.65c.5-5.32,4.43-9.59,9.56-10.69Z"/>
        <path d="M9.56,216.95l122.85-.21c5.13.12,9.58,3.59,11.08,8.42l.54,124.02c-.12,5.13-3.59,9.58-8.42,11.08l-124.02.54c-5.13-.12-9.58-3.59-11.08-8.42l-.52-124.74c.5-5.32,4.43-9.59,9.56-10.69Z"/>
      </g>
    </g>
  </g>
</svg>