<svg width="30" height="30" viewBox="0 0 30 30" fill="none" xmlns="http://www.w3.org/2000/svg">
<path d="M14.58 0.0147535C14.8423 -0.0245893 15.0652 0.0147536 15.2882 0.132782L28.9794 8.93246C29.6876 9.339 29.7138 10.2701 29.0188 10.7029L15.3275 19.5026C15.0914 19.6468 14.8029 19.7124 14.5275 19.6337L0.455912 10.6635C-0.13423 10.2439 -0.13423 9.4308 0.455912 9.01114L14.2259 0.159011C14.3308 0.0934392 14.462 0.0409821 14.58 0.0147535ZM15.3144 5.667C15.039 5.71946 14.698 6.0342 14.6062 6.3096L13.0063 12.9454C13.0325 14.0208 14.357 14.4142 14.9078 13.4175L16.5471 6.63746C16.5209 5.98175 15.9832 5.50963 15.3144 5.65389V5.667ZM10.7637 6.84729C10.6326 6.84729 10.3703 6.93909 10.2654 7.00466C9.95064 7.20137 9.03265 8.21117 8.73102 8.53903C8.23267 9.08983 7.55073 9.64063 8.08842 10.4144C8.40316 10.8734 9.7277 12.2241 10.1736 12.5651C10.9473 13.1553 11.9309 12.5651 11.7604 11.5947C11.6555 11.0176 10.2785 10.1259 10.3178 9.81111C10.7506 9.02426 12.2325 8.43412 11.6686 7.33252C11.5112 7.03089 11.1047 6.83417 10.7768 6.84729H10.7637ZM18.4487 6.89975C17.7799 7.044 17.6094 7.93577 17.9766 8.44723C18.1339 8.67017 19.288 9.67997 19.2618 9.85046L17.911 11.2668C17.3602 12.2635 18.3962 13.1946 19.3536 12.5913C19.9175 11.8963 20.8617 11.1881 21.3863 10.5062C21.7404 10.0472 21.7535 9.64063 21.4125 9.18163C21.0715 8.72263 19.8126 7.42432 19.3929 7.08335C19.1044 6.8604 18.8159 6.80795 18.4487 6.88663V6.89975Z" fill="#0080D0"/>
<path d="M14.6744 0.506836C14.8163 0.48866 14.924 0.508242 15.0406 0.567383L28.7096 9.35352L28.7194 9.35938L28.7301 9.36621C29.1176 9.58865 29.1215 10.0497 28.7545 10.2783L28.7487 10.2822L15.0641 19.0771C14.941 19.1517 14.8189 19.175 14.7164 19.1611L0.745728 10.2559C0.455363 10.0493 0.437006 9.68784 0.69104 9.46191L0.745728 9.41895L14.4957 0.579102C14.5461 0.548568 14.6147 0.521902 14.6744 0.506836ZM17.0465 6.61719C17.0089 5.68174 16.2098 4.9491 15.2086 5.16504L14.8141 5.25V5.34082C14.717 5.40019 14.6288 5.46722 14.5543 5.53516C14.3835 5.69107 14.2128 5.90724 14.1315 6.15137L14.1198 6.19238L12.5201 12.8281L12.5045 12.8916L12.5065 12.958C12.5252 13.7193 13.0155 14.2763 13.6305 14.4414C14.2578 14.6097 14.9598 14.3568 15.3453 13.6592L15.3776 13.6006L15.3942 13.5352L17.0328 6.75488L17.0494 6.6875L17.0465 6.61719ZM10.7565 6.34766C10.6099 6.34907 10.4523 6.39203 10.3492 6.42578C10.238 6.46222 10.1027 6.51726 10.0006 6.58105C9.87476 6.65971 9.72585 6.79202 9.59241 6.91797C9.44919 7.05315 9.28917 7.2144 9.13342 7.37598C8.8219 7.69916 8.51177 8.03839 8.36292 8.2002L8.35999 8.20312C8.30189 8.26733 8.24114 8.33253 8.17444 8.40332C8.10935 8.47239 8.03935 8.54658 7.97131 8.62305C7.83704 8.77396 7.69252 8.95213 7.58264 9.15332C7.47068 9.3584 7.38579 9.60387 7.39221 9.88379C7.39873 10.1669 7.49721 10.4398 7.67737 10.6992V10.6982C7.86341 10.969 8.3024 11.4506 8.72327 11.8828C9.1476 12.3186 9.61395 12.7662 9.86975 12.9619L9.87073 12.9629C10.4147 13.3775 11.0768 13.3987 11.5807 13.0928C12.0858 12.7861 12.3719 12.187 12.2526 11.5078V11.5049L12.2272 11.4004C12.1554 11.1604 11.9978 10.9491 11.8668 10.7939C11.7037 10.6007 11.504 10.4085 11.3287 10.2422C11.1602 10.0823 11.0204 9.94945 10.9137 9.83691C10.9747 9.76765 11.0493 9.6919 11.1373 9.60742C11.3042 9.44736 11.544 9.23508 11.734 9.0293C11.9302 8.81679 12.1363 8.54752 12.235 8.2168C12.3403 7.86381 12.3101 7.48774 12.1139 7.10449L12.1119 7.10156L12.0563 7.00586C11.9174 6.79143 11.7178 6.63362 11.5192 6.5293C11.2914 6.40964 11.0209 6.33708 10.7565 6.34766ZM19.0494 6.38184C18.8118 6.33381 18.5764 6.34778 18.3444 6.39746L17.9489 6.48242V6.56738C17.6261 6.76264 17.4261 7.08333 17.3405 7.4082C17.2268 7.83946 17.2896 8.34742 17.5699 8.73828C17.6412 8.83826 17.7796 8.97732 17.8951 9.0918C17.9616 9.15764 18.0356 9.22913 18.11 9.30176C18.185 9.37497 18.2617 9.45037 18.3365 9.52441C18.4387 9.62543 18.5322 9.72216 18.6119 9.80664L17.5494 10.9219L17.5045 10.9688L17.4733 11.0254C17.0888 11.7215 17.2454 12.4571 17.7301 12.8984C18.2106 13.3357 18.9563 13.4325 19.6198 13.0146L19.6901 12.9707L19.7418 12.9062C19.9977 12.5908 20.3467 12.2652 20.7272 11.9082C21.0923 11.5656 21.4913 11.1895 21.7828 10.8105L21.7819 10.8096C21.9983 10.5287 22.1516 10.2129 22.1598 9.85547C22.168 9.49489 22.0279 9.17177 21.8141 8.88379C21.6217 8.62477 21.1993 8.16361 20.7916 7.74121C20.3835 7.3184 19.9451 6.88749 19.7086 6.69531L19.6989 6.6875L19.5485 6.58301C19.3947 6.48714 19.2296 6.41826 19.0494 6.38184Z" stroke="#0080D0" stroke-opacity="0.2"/>
<path d="M1.17735 13.47L13.2294 21.1943C14.1998 21.7844 15.367 21.7844 16.3374 21.1943L28.3501 13.47C29.3075 13.8896 30.1337 14.7814 29.0321 15.6207L15.0391 24.5515C14.7637 24.6302 14.4752 24.5646 14.2392 24.4204L0.416724 15.5551C-0.527503 14.6634 0.31181 13.929 1.16424 13.47H1.17735Z" fill="#0080D0"/>
<path d="M28.3809 14.0432C28.696 14.2175 28.9245 14.4259 29.0156 14.6096C29.0631 14.7055 29.0662 14.7784 29.0459 14.8459C29.0232 14.9215 28.9515 15.05 28.7393 15.2141L14.8516 24.0774C14.7783 24.0876 14.6952 24.0817 14.6084 24.0481L14.5 23.9934L0.733398 15.1643C0.568837 15.0018 0.51844 14.8855 0.504883 14.8186C0.49226 14.7562 0.500849 14.6882 0.552734 14.5959C0.650817 14.4217 0.866515 14.2338 1.1582 14.052L12.96 21.6155L12.9697 21.6213C14.0998 22.3085 15.4676 22.3085 16.5977 21.6213L16.6074 21.6145L28.3809 14.0432Z" stroke="#0080D0" stroke-opacity="0.2"/>
<path d="M1.17735 18.3878L13.2294 26.1121C14.1998 26.7023 15.367 26.7023 16.3374 26.1121L28.3501 18.3878C29.3075 18.8075 30.1337 19.6992 29.0321 20.5386L15.0391 29.4694C14.7637 29.5481 14.4752 29.4825 14.2392 29.3382L0.416724 20.473C-0.527503 19.5812 0.31181 18.8468 1.16424 18.3878H1.17735Z" fill="#0080D0"/>
<path d="M28.3809 18.9611C28.696 19.1354 28.9245 19.3438 29.0156 19.5275C29.0631 19.6233 29.0662 19.6962 29.0459 19.7638C29.0232 19.8394 28.9515 19.9678 28.7393 20.132L14.8516 28.9952C14.7783 29.0054 14.6952 28.9996 14.6084 28.9659L14.5 28.9113L0.733398 20.0822C0.568836 19.9197 0.51844 19.8034 0.504883 19.7365C0.49226 19.6741 0.500849 19.6061 0.552734 19.5138C0.650817 19.3395 0.866515 19.1517 1.1582 18.9698L12.96 26.5333L12.9697 26.5392C14.0998 27.2264 15.4676 27.2264 16.5977 26.5392L16.6074 26.5323L28.3809 18.9611Z" stroke="#0080D0" stroke-opacity="0.2"/>
</svg>
