<?xml version="1.0" encoding="UTF-8"?>
<svg id="Layer_2" data-name="Layer 2" xmlns="http://www.w3.org/2000/svg" viewBox="0 0 15.76 15.78">
  <defs>
    <style>
      .cls-1 {
        fill: #fff;
      }
    </style>
  </defs>
  <g id="Layer_1-2" data-name="Layer 1">
    <g>
      <g>
        <path d="M7.01,4.93c-.79.23-1.46.77-1.84,1.49-.12.2-.21.41-.27.63l-.63-.63L.93,3.07l-.19-.19-.36-.35C-.72,1.13.92-.65,2.4.32l.1.1,4.51,4.51Z"/>
        <path d="M9.64,9.41c-.38.45-.94.75-1.57.8l-.8-.8-1.54-1.53-.14-.15c.03-.5.23-.95.54-1.31.38-.46.94-.76,1.57-.81l.15.15.65.65,1.47,1.46.22.23c-.04.5-.24.95-.55,1.31Z"/>
        <path d="M13.28,15.42l-3.01-3.01-1.52-1.51c.8-.23,1.47-.77,1.86-1.49.11-.19.2-.41.27-.63l.62.63,3.35,3.34.55.55c1.14,1.45-.67,3.26-2.12,2.12Z"/>
      </g>
      <g>
        <path d="M6.96,10.88l-1.53,1.54-2.95,2.95s-.04.03-.06.04c-1.44,1.06-3.18-.73-2.06-2.16l4.53-4.53c.06.24.16.48.28.69.38.7,1.02,1.23,1.79,1.47Z"/>
        <path d="M9.65,6.41c.29.35.48.77.54,1.24l-.22.22-1.54,1.54-.58.58-.22.22c-.59-.07-1.12-.37-1.49-.8-.33-.38-.53-.85-.56-1.38l2.43-2.43c.65.04,1.23.34,1.64.81Z"/>
        <path d="M15.45,2.38l-.24.24-.6.61-.04.03-3.14,3.15-.57.57c-.06-.2-.15-.39-.25-.57-.4-.73-1.09-1.28-1.91-1.5L13.25.36c1.4-1.1,3.17.54,2.2,2.02Z"/>
      </g>
      <path class="cls-1" d="M10.2,7.91c0,.06,0,.13-.01.19-.04.5-.24.95-.55,1.31-.38.45-.94.75-1.57.8-.06.01-.12.01-.18.01-.09,0-.17,0-.26-.01-.59-.07-1.12-.37-1.49-.8-.33-.38-.53-.85-.56-1.38v-.12c0-.06,0-.12.01-.18.03-.5.23-.95.54-1.31.38-.46.94-.76,1.57-.81.06-.01.13-.01.19-.01h.12c.65.04,1.23.34,1.64.81.29.35.48.77.54,1.24.01.09.01.17.01.26Z"/>
      <path d="M10.2,7.91c0,.06,0,.13-.01.19-.04.5-.24.95-.55,1.31-.38.45-.94.75-1.57.8-.06.01-.12.01-.18.01-.09,0-.17,0-.26-.01-.59-.07-1.12-.37-1.49-.8-.33-.38-.53-.85-.56-1.38v-.12c0-.06,0-.12.01-.18.03-.5.23-.95.54-1.31.38-.46.94-.76,1.57-.81.06-.01.13-.01.19-.01h.12c.65.04,1.23.34,1.64.81.29.35.48.77.54,1.24.01.09.01.17.01.26Z"/>
    </g>
  </g>
</svg>